<?xml version="1.0" standalone="no"?>
<!DOCTYPE svg PUBLIC "-//W3C//DTD SVG 20010904//EN"
 "http://www.w3.org/TR/2001/REC-SVG-20010904/DTD/svg10.dtd">
<svg version="1.0" xmlns="http://www.w3.org/2000/svg"
 width="665.000000pt" height="665.000000pt" viewBox="0 0 665.000000 665.000000"
 preserveAspectRatio="xMidYMid meet">
<metadata>
Created by potrace 1.11, written by Peter Selinger 2001-2013
</metadata>
<g transform="translate(0.000000,665.000000) scale(0.100000,-0.100000)"
fill="#000000" stroke="none">
<path d="M3237 6522 c-82 -149 -109 -187 -137 -189 -97 -7 -177 -14 -190 -18
-8 -2 -35 -7 -60 -10 -25 -2 -56 -7 -70 -10 -14 -3 -41 -8 -60 -11 -125 -21
-461 -120 -575 -168 -442 -189 -766 -406 -1084 -726 -52 -52 -217 -242 -249
-285 -4 -6 -27 -36 -51 -69 -132 -178 -291 -464 -376 -681 -63 -160 -131 -376
-151 -480 -2 -11 -6 -31 -9 -45 -16 -75 -33 -177 -40 -235 -3 -27 -8 -61 -10
-75 -21 -124 -21 -580 0 -689 2 -13 7 -49 10 -80 4 -31 8 -63 10 -71 3 -8 7
-31 10 -50 38 -244 136 -553 252 -803 l36 -78 -20 -37 c-11 -20 -54 -97 -96
-170 -42 -73 -77 -136 -77 -140 0 -4 90 -7 200 -6 l200 1 72 -96 c269 -360
569 -631 945 -854 427 -253 884 -393 1409 -432 121 -9 416 -4 525 10 24 3 64
8 89 11 37 4 182 29 279 49 116 23 365 102 509 161 278 115 544 273 787 467
140 113 393 371 498 507 48 63 98 129 111 146 l24 30 167 0 c92 -1 168 1 170
4 1 3 -35 70 -80 149 l-83 143 49 99 c106 213 222 553 253 739 3 19 8 46 11
60 8 36 13 69 20 120 3 25 8 52 10 60 19 73 27 567 11 705 -13 120 -13 119
-32 240 -55 346 -210 765 -403 1083 -72 120 -146 231 -187 281 -7 9 -43 54
-80 101 -90 113 -335 357 -459 456 -95 77 -287 213 -350 248 -17 9 -46 26 -65
38 -75 45 -310 158 -420 201 -102 40 -309 108 -372 121 -13 3 -54 12 -93 21
-137 30 -270 52 -375 61 -41 3 -91 7 -110 9 -19 2 -45 4 -57 4 -16 1 -37 28
-90 118 -37 65 -71 125 -75 135 -4 10 -11 18 -15 18 -4 0 -30 -40 -56 -88z"/>
</g>
</svg>
